<svg width="381" height="381" viewBox="0 0 381 381" fill="none" xmlns="http://www.w3.org/2000/svg">
<rect width="381" height="381" rx="39" fill="#D9D9D9"/>
<circle cx="190.5" cy="190.5" r="130.5" fill="#B93434"/>
<circle cx="40" cy="39" r="11" fill="black"/>
<circle cx="40" cy="341" r="11" fill="black"/>
<circle cx="342" cy="39" r="11" fill="black"/>
<circle cx="342" cy="341" r="11" fill="black"/>
<path d="M123.128 177.096C122.616 176.499 121.933 175.923 121.08 175.368C120.227 174.813 119.267 174.323 118.2 173.896C117.133 173.427 115.96 173.064 114.68 172.808C113.443 172.509 112.141 172.36 110.776 172.36C107.277 172.36 104.696 173.021 103.032 174.344C101.368 175.667 100.536 177.48 100.536 179.784C100.536 181.405 100.963 182.685 101.816 183.624C102.669 184.563 103.971 185.331 105.72 185.928C107.512 186.525 109.773 187.144 112.504 187.784C115.661 188.467 118.392 189.299 120.696 190.28C123 191.261 124.771 192.584 126.008 194.248C127.245 195.869 127.864 198.045 127.864 200.776C127.864 202.952 127.437 204.851 126.584 206.472C125.773 208.051 124.621 209.373 123.128 210.44C121.635 211.464 119.885 212.232 117.88 212.744C115.875 213.213 113.699 213.448 111.352 213.448C109.048 213.448 106.787 213.213 104.568 212.744C102.392 212.232 100.323 211.507 98.36 210.568C96.3973 209.629 94.5627 208.456 92.856 207.048L95.608 202.184C96.2907 202.909 97.1653 203.635 98.232 204.36C99.3413 205.043 100.579 205.683 101.944 206.28C103.352 206.877 104.867 207.368 106.488 207.752C108.109 208.093 109.773 208.264 111.48 208.264C114.723 208.264 117.24 207.688 119.032 206.536C120.824 205.341 121.72 203.613 121.72 201.352C121.72 199.645 121.208 198.28 120.184 197.256C119.203 196.232 117.731 195.379 115.768 194.696C113.805 194.013 111.416 193.331 108.6 192.648C105.528 191.88 102.947 191.048 100.856 190.152C98.7653 189.213 97.1867 187.997 96.12 186.504C95.096 185.011 94.584 183.069 94.584 180.68C94.584 177.779 95.288 175.325 96.696 173.32C98.104 171.315 100.045 169.8 102.52 168.776C104.995 167.752 107.789 167.24 110.904 167.24C112.952 167.24 114.851 167.453 116.6 167.88C118.392 168.307 120.056 168.904 121.592 169.672C123.128 170.44 124.536 171.357 125.816 172.424L123.128 177.096ZM168.208 172.68H152.528V213H146.768V172.68H131.088V167.56H168.208V172.68ZM184.264 167.56H189.128L207.688 213H201.544L196.168 199.688H177.096L171.784 213H165.64L184.264 167.56ZM194.888 195.208L186.696 174.216L178.248 195.208H194.888ZM213.753 213V167.56H233.209C235.214 167.56 237.049 167.987 238.713 168.84C240.377 169.651 241.827 170.76 243.065 172.168C244.302 173.533 245.262 175.091 245.944 176.84C246.627 178.547 246.969 180.296 246.969 182.088C246.969 184.179 246.563 186.163 245.753 188.04C244.985 189.917 243.875 191.517 242.425 192.84C241.017 194.163 239.353 195.08 237.433 195.592L248.441 213H241.913L231.545 196.68H219.513V213H213.753ZM219.513 191.56H233.273C234.851 191.56 236.217 191.133 237.369 190.28C238.563 189.384 239.481 188.211 240.121 186.76C240.803 185.309 241.145 183.752 241.145 182.088C241.145 180.381 240.761 178.824 239.993 177.416C239.225 175.965 238.222 174.813 236.985 173.96C235.747 173.107 234.382 172.68 232.889 172.68H219.513V191.56ZM288.208 172.68H272.528V213H266.768V172.68H251.088V167.56H288.208V172.68Z" fill="white"/>
</svg>
