<svg xmlns="http://www.w3.org/2000/svg" width="800" height="800" viewBox="0 0 512 512" xml:space="preserve">
  <path style="display:inline" d="M206.729 238.87s48.358-3.589 48.358-60.296c0-56.711-39.563-84.387-89.678-84.387H.5v316.909h164.909s100.671 3.18 100.671-93.537c0 0 4.389-78.689-59.351-78.689zm-53.19-88.357h11.87s22.416 0 22.416 32.973c0 32.968-13.183 37.749-28.136 37.749H73.161v-70.722h80.378zm7.21 204.257H73.161v-84.69h92.248s33.41-.438 33.41 43.523c0 37.067-24.954 40.887-38.07 41.167zm239.593-179.953c-121.873 0-121.765 121.765-121.765 121.765s-8.362 121.141 121.765 121.141c0 0 108.438 6.195 108.438-84.271h-55.767s1.86 34.068-50.81 34.068c0 0-55.777 3.738-55.777-55.135h164.213s17.97-137.568-110.297-137.568zm-54.529 95.263s6.809-48.845 55.768-48.845c48.949 0 48.336 48.845 48.336 48.845H345.813zm117.095-118.199H332.159v-39.025h130.749v39.025z"/>
</svg>
