<svg width="1111" height="228" viewBox="0 0 1111 228" fill="none" xmlns="http://www.w3.org/2000/svg">
<path d="M287.375 33.1001C287.375 33.1001 294.072 208.672 221.375 207.2C149.217 205.739 159.375 33.1001 159.375 33.1001C159.375 33.1001 157.407 211.974 83.375 207.2C11.2201 202.547 20.375 33.1001 20.375 33.1001" stroke="black" stroke-width="40" stroke-linecap="round"/>
<path d="M425.375 20C477.375 20 518.375 62 518.375 114C518.375 165 477.375 207 425.375 207C374.375 207 332.375 165 332.375 114C332.375 62 374.375 20 425.375 20Z" stroke="black" stroke-width="40" stroke-linecap="round"/>
<path d="M696.375 206.5L640.375 134.5M640.375 134.5H561.375M640.375 134.5H645.375C673.375 134.5 696.375 112 696.375 84C696.375 56 673.375 33 645.375 33H561.375V206.5" stroke="black" stroke-width="40" stroke-linecap="round"/>
<path d="M844.375 207H741.375V33" stroke="black" stroke-width="40" stroke-linecap="round"/>
<path d="M1046.38 120C1046.38 168 1013.38 207 965.375 207H887.375V33H965.375C1013.38 33 1046.38 72 1046.38 120Z" stroke="black" stroke-width="40" stroke-linecap="round"/>
<path d="M1090.38 31.5V139.5M1090.38 202.5V206.5" stroke="black" stroke-width="40" stroke-linecap="round"/>
</svg>
