<svg width="20" height="17" viewBox="0 0 103 90" fill="none" xmlns="http://www.w3.org/2000/svg">
<path d="M102.693 30.177C102.693 69.296 51.347 89.414 51.347 89.414C51.347 89.414 0 69.295 0 30.177C0 13.501 12.405 5.55438e-08 27.727 5.55438e-08C37.709 5.55438e-08 46.458 5.74498 51.346 14.351C56.234 5.74498 64.984 5.55438e-08 74.965 5.55438e-08C90.287 -0.000999945 102.693 13.501 102.693 30.177Z" fill="#ED1B3E"/>
<path d="M5.34806 27.232C5.29606 27.232 5.24306 27.228 5.18906 27.219C4.64406 27.132 4.27306 26.619 4.36006 26.073C5.77306 17.233 11.1601 9.84904 18.7681 6.32404C19.2741 6.09104 19.8651 6.31104 20.0961 6.81004C20.3281 7.31204 20.1111 7.90604 19.6101 8.13804C12.6051 11.384 7.64206 18.206 6.33506 26.389C6.25606 26.881 5.83106 27.232 5.34806 27.232Z" fill="#FF7694"/>
<path d="M5.17107 35.2319C4.66107 35.2319 4.22606 34.8439 4.17706 34.3269C4.11306 33.6489 4.06506 32.9649 4.03506 32.2739C4.01206 31.7219 4.44007 31.2559 4.99207 31.2329C5.56207 31.1979 6.01007 31.6379 6.03307 32.1899C6.06007 32.8449 6.10606 33.4949 6.16706 34.1369C6.22006 34.6879 5.81606 35.1749 5.26706 35.2269C5.23406 35.2309 5.20207 35.2319 5.17107 35.2319Z" fill="#FF7694"/>
<path d="M102.69 30.1718C102.69 69.2918 51.3499 89.4118 51.3499 89.4118C51.3499 89.4118 50.1599 88.9418 48.1399 88.0118C56.5799 84.3518 97.9999 64.5518 97.9999 29.4118C97.9999 15.1718 88.9499 3.25178 76.7699 0.0717773C91.2499 1.07178 102.69 14.1618 102.69 30.1718Z" fill="#C1163B"/>
</svg>
