<svg width="24" height="23" viewBox="0 0 24 23" fill="none" xmlns="http://www.w3.org/2000/svg">
<path d="M3.08 4.8L6.58 11.48L10.14 4.8H13.12L7.96 14.04V19H5.22V14L0.08 4.8H3.08ZM22.8741 19H20.1941V13.12C20.1941 12.28 20.0474 11.6667 19.7541 11.28C19.4607 10.8933 19.0541 10.7 18.5341 10.7C18.1741 10.7 17.8074 10.7933 17.4341 10.98C17.0741 11.1667 16.7474 11.4267 16.4541 11.76C16.1607 12.08 15.9474 12.4533 15.8141 12.88V19H13.1341V8.52H15.5541V10.46C15.8207 10.0067 16.1607 9.62667 16.5741 9.32C16.9874 9 17.4607 8.76 17.9941 8.6C18.5407 8.42667 19.1141 8.34 19.7141 8.34C20.3674 8.34 20.9007 8.46 21.3141 8.7C21.7407 8.92667 22.0607 9.24 22.2741 9.64C22.5007 10.0267 22.6541 10.4667 22.7341 10.96C22.8274 11.4533 22.8741 11.9533 22.8741 12.46V19Z" fill="#343E59"/>
<rect x="18" width="6" height="6" fill="#2B55EF"/>
</svg>
