<svg version="1.1" id="Layer_1" xmlns="http://www.w3.org/2000/svg" xmlns:xlink="http://www.w3.org/1999/xlink" x="0px" y="0px"
	 width="100%" viewBox="0 0 1024 1008" enable-background="new 0 0 1024 1008" xml:space="preserve">
<path fill="#000000" opacity="1.000000" stroke="none" 
	d="
M313.973328,345.975983 
	C314.998932,346.805023 315.941620,347.772675 317.062195,348.442993 
	C351.366699,368.964294 381.781189,394.735077 412.961243,419.471375 
	C434.229004,436.343811 455.138153,453.665314 476.867340,469.960480 
	C486.858948,477.453430 496.485565,485.434021 506.815033,492.479584 
	C508.307251,493.497406 509.880768,494.396027 512.106201,495.778076 
	C511.490723,492.551971 509.502167,491.256073 507.866974,489.817200 
	C490.734497,474.741608 473.182648,460.116577 456.959961,444.048950 
	C431.114624,418.450592 405.916626,392.252136 389.098114,359.426758 
	C378.969055,339.657410 372.340057,318.815491 371.970520,296.387207 
	C371.532043,269.771515 380.478882,246.126556 395.417206,224.494553 
	C414.329865,197.107315 440.060425,178.129242 469.975037,164.407288 
	C491.810089,154.391479 514.651367,147.030045 537.343689,139.299316 
	C544.396362,136.896622 544.320740,137.163193 548.103027,143.754807 
	C564.600037,172.505325 580.100159,201.785919 594.944763,231.417404 
	C595.893799,233.311752 597.359619,235.055344 597.154785,237.680161 
	C591.581482,239.666687 585.991638,241.693741 580.376160,243.646988 
	C577.248657,244.734848 575.957458,242.410843 574.425049,240.383881 
	C562.464294,224.563202 549.808350,209.313980 536.717407,194.416077 
	C534.517822,191.912888 532.848328,191.327988 530.220215,193.810745 
	C504.554352,218.057220 482.179230,244.609558 469.476318,278.222107 
	C460.382446,302.284943 457.082275,327.163513 458.476257,352.695496 
	C458.854340,359.619995 460.456940,366.484344 461.634155,373.352844 
	C461.869202,374.724304 461.926636,376.385284 463.797180,377.442963 
	C466.223236,373.810852 466.003845,369.510071 466.423187,365.644196 
	C469.612213,336.246979 483.599152,312.424286 504.101501,292.008545 
	C524.877380,271.320435 549.768188,257.161591 577.002808,246.750443 
	C600.190247,237.886429 624.242859,234.018677 648.895264,234.928345 
	C693.179321,236.562439 733.161072,251.404648 769.689880,276.074860 
	C800.715271,297.028259 825.188293,323.740692 841.018860,357.912689 
	C850.050842,377.409271 854.417236,398.079285 853.306946,419.459900 
	C852.400391,436.918365 847.372253,453.548615 837.505371,468.276642 
	C834.836182,472.260895 834.668091,474.768616 838.214294,478.498352 
	C858.940918,500.297668 871.740479,526.377380 874.997559,556.118652 
	C880.881653,609.847046 864.136292,655.059204 820.235718,688.299072 
	C797.899170,705.211487 772.093384,713.184082 744.189697,715.547974 
	C725.289978,717.149048 707.022583,715.478271 688.974854,709.929321 
	C684.320190,708.498291 683.176636,710.297363 684.529175,716.423340 
	C688.675415,735.202881 687.897400,753.701050 681.583313,771.942932 
	C671.070190,802.316040 651.164856,825.062256 624.662720,842.544800 
	C596.631653,861.035950 565.567566,872.205261 533.330078,880.561768 
	C523.669739,883.065979 513.932312,885.286133 504.323822,887.971558 
	C500.018616,889.174744 498.148682,887.851135 496.466187,883.835754 
	C483.002014,851.703125 471.277039,819.000061 463.060394,785.097290 
	C462.648010,783.395813 462.814789,781.373718 460.828766,780.050842 
	C392.004181,822.351196 325.423981,820.214600 261.359497,769.067444 
	C295.619141,767.403564 328.333496,759.700928 359.448761,746.136047 
	C360.994598,747.538147 359.065674,748.063416 359.488251,749.512695 
	C365.247101,749.205383 371.062622,748.399597 376.803436,747.037292 
	C403.138733,740.787659 423.968353,726.074707 441.008392,705.426819 
	C458.182495,684.616516 468.907959,660.508484 476.670837,635.020325 
	C484.714996,608.608459 492.013519,581.970154 499.760803,555.466797 
	C502.235291,547.001648 505.110626,538.653931 507.780365,530.245422 
	C508.370880,528.385681 509.405212,526.562561 508.554840,524.472229 
	C506.647949,524.112793 506.424866,525.783630 505.758881,526.764282 
	C477.807953,567.919983 444.170532,603.640442 403.807495,632.825806 
	C378.729095,650.959229 351.631104,665.209595 320.861542,670.596619 
	C287.504120,676.436768 254.342926,676.150391 223.348312,660.163696 
	C188.342178,642.107971 168.290680,613.379089 164.633026,573.802307 
	C161.373306,538.531433 172.473511,507.919983 195.047363,481.106354 
	C200.468552,474.666901 200.474045,474.713654 195.554169,468.109314 
	C180.469574,447.860046 171.929077,425.153442 169.570374,399.999176 
	C167.791550,381.028748 169.195404,362.038727 168.633255,343.067841 
	C168.550415,340.272369 169.484955,338.871674 172.251877,338.158356 
	C214.330566,327.309845 256.284119,324.897247 297.993073,339.876160 
	C303.152893,341.729156 308.199646,343.897156 313.654510,345.961456 
	C314.010254,346.003693 313.973328,345.975983 313.973328,345.975983 
M502.332825,441.305756 
	C507.336670,458.218445 512.340515,475.131134 517.692139,493.219299 
	C520.256897,489.473480 520.145203,486.718994 520.584595,484.178070 
	C525.949158,453.156250 534.352051,423.225006 550.666016,395.892395 
	C573.678833,357.336487 607.962036,334.086304 650.360229,321.713776 
	C669.616760,316.094391 689.332092,313.319000 709.367249,312.497284 
	C712.857239,312.354156 716.565247,312.354462 719.844604,310.855103 
	C719.794495,309.237152 718.679077,308.949707 717.841125,308.533875 
	C691.463806,295.445221 664.357849,284.869934 634.608521,282.184906 
	C606.477234,279.645905 579.471191,282.646729 554.141418,295.938080 
	C525.204163,311.122375 505.166016,333.765991 497.858795,366.024536 
	C492.184448,391.074463 495.330750,415.985352 502.332825,441.305756 
M255.183151,518.375977 
	C248.294876,513.698914 241.404221,509.025391 234.519226,504.343475 
	C230.507248,501.615234 229.126022,502.171173 228.315247,506.983704 
	C225.777847,522.044922 227.723984,536.698486 234.228516,550.336731 
	C252.563126,588.779419 284.655487,608.349121 325.719025,613.397034 
	C354.055206,616.880371 381.296844,610.708801 407.423492,599.181641 
	C446.450134,581.962891 474.981995,551.756348 503.971680,522.058105 
	C504.611053,521.403015 505.496918,520.581970 504.443390,519.474670 
	C502.973206,519.107544 501.880463,520.003296 500.778900,520.680664 
	C490.368103,527.082642 479.141571,531.703430 467.758148,536.021729 
	C427.965149,551.117188 386.953522,556.742859 344.692352,551.167114 
	C312.740448,546.951477 283.102570,535.946716 255.183151,518.375977 
M563.735962,516.898682 
	C553.012817,513.268433 542.289673,509.638184 531.121948,505.857452 
	C531.197510,508.336395 532.310120,508.887787 533.213379,509.545441 
	C553.162598,524.071045 571.630737,540.439819 590.820801,555.908691 
	C617.662170,577.545166 643.822327,600.059021 672.879150,618.792664 
	C691.489685,630.791260 710.936279,640.171875 733.456909,643.082642 
	C772.951904,648.187317 809.582092,627.002869 823.840759,589.872681 
	C829.918335,574.046204 830.348999,557.691650 829.362366,541.191345 
	C829.162537,537.850464 829.559631,533.821594 825.949463,530.149536 
	C825.570984,531.002380 825.234070,531.598206 825.033752,532.236938 
	C819.071533,551.248901 805.789124,566.287476 796.954407,583.807495 
	C784.237427,609.026550 762.420166,622.905151 734.289429,626.161621 
	C715.413147,628.346863 697.170959,624.864502 679.374329,618.662048 
	C678.208130,618.255676 676.759399,618.041992 676.201294,615.711304 
	C696.486328,622.116394 716.748352,624.628357 737.273438,619.277344 
	C758.186340,613.825378 774.135620,601.283875 787.783752,583.075378 
	C785.293640,583.953308 784.174255,584.234924 783.154480,584.724121 
	C759.522034,596.061035 734.839905,597.368958 709.535950,592.339600 
	C686.614929,587.783997 665.515625,578.377319 644.837952,567.844727 
	C621.935730,556.179077 600.691223,541.744751 578.758484,528.460144 
	C577.753418,527.851379 576.195374,527.571106 576.312622,525.330811 
	C582.221924,527.497803 587.863220,529.837280 593.669495,531.647766 
	C616.103149,538.642883 638.822449,544.207520 662.383240,545.993469 
	C681.424683,547.436829 700.372620,547.151978 718.984802,542.887451 
	C756.237488,534.351807 785.274109,512.783813 809.619812,484.196655 
	C815.203796,477.639862 814.946960,473.691101 809.035522,465.339813 
	C803.508850,469.227325 799.861328,474.879059 795.499390,479.768341 
	C779.846191,497.313599 762.588440,512.742004 741.126099,522.996826 
	C706.621338,539.483459 670.322449,539.870605 633.555908,534.757202 
	C609.930603,531.471375 587.163025,524.398254 563.735962,516.898682 
M566.610107,456.115723 
	C552.248962,469.356506 538.396545,483.092255 525.480347,497.944519 
	C616.396362,459.392731 709.098389,437.671387 807.359497,463.632294 
	C808.454346,461.406433 807.633301,460.056335 807.056580,458.718872 
	C800.617004,443.785187 791.603394,430.414856 778.951660,420.355072 
	C737.633606,387.501984 692.073669,381.349030 643.515869,401.801422 
	C614.278503,414.116119 589.979675,433.979614 566.610107,456.115723 
M511.396973,685.930664 
	C523.795349,665.615662 530.428345,643.341675 533.443848,619.845886 
	C537.814941,678.511902 522.042480,729.426941 475.949066,768.132324 
	C488.670197,787.591187 502.677032,805.032227 517.574219,821.527466 
	C518.473694,821.183350 518.864258,821.149841 519.070374,820.937317 
	C521.617859,818.311462 524.187073,815.703918 526.658081,813.006836 
	C541.521667,796.783813 554.087036,779.055298 561.549255,758.160278 
	C571.363525,730.679504 570.615906,702.653687 565.020203,674.535583 
	C559.705566,647.830139 549.712280,622.551453 540.659058,597.004456 
	C532.708679,574.569275 525.407104,551.968140 520.330139,528.671570 
	C519.168091,523.339233 518.791931,517.644104 516.031860,512.565674 
	C513.882507,513.797852 513.372681,515.358765 513.272156,517.057495 
	C512.967224,522.206116 512.386963,527.367859 512.522095,532.508484 
	C513.558777,571.966248 514.029541,611.403442 510.378174,650.778992 
	C508.654938,669.361694 504.179962,687.120422 495.518372,703.737854 
	C494.830109,705.058289 493.617432,706.324890 494.084442,708.181641 
	C495.908997,707.654175 496.787079,706.383911 497.715179,705.256592 
	C502.588501,699.336853 506.986450,693.073181 511.396973,685.930664 
M425.117889,496.258667 
	C460.484467,503.898773 491.849487,507.215729 497.383545,503.872772 
	C490.184479,501.777283 482.942078,499.911865 475.858551,497.566406 
	C440.042847,485.707306 405.994019,469.655579 371.931274,453.629150 
	C347.493378,442.131195 322.232147,434.735626 294.724518,438.268280 
	C277.796631,440.442169 262.559753,446.488953 248.976532,456.754822 
	C248.201904,457.340302 246.812592,457.880219 247.478821,459.384583 
	C248.807571,459.867767 249.806686,459.069580 250.859222,458.681335 
	C269.466370,451.817688 288.486633,450.954071 307.868378,454.526642 
	C329.234650,458.464996 348.612091,467.876953 368.305420,476.386047 
	C386.524994,484.258331 405.072144,491.127136 425.117889,496.258667 
M642.580383,661.971680 
	C655.901733,683.671570 665.649048,706.961121 673.447876,731.130188 
	C674.097473,733.143188 674.175293,735.879700 677.465820,736.341980 
	C679.829529,731.696655 680.320557,726.767273 680.661438,721.821594 
	C681.917480,703.602844 674.797424,687.656433 667.053650,671.882446 
	C656.653748,650.697876 641.674988,632.838074 625.948181,615.559021 
	C596.101074,582.766174 563.452393,552.748230 532.227661,521.318909 
	C530.509888,519.589905 528.834839,517.355042 524.983826,516.865112 
	C527.171936,519.945068 528.632385,522.363708 530.440552,524.486023 
	C540.702393,536.531006 550.856873,548.675476 561.400757,560.470642 
	C590.160583,592.643188 619.273682,624.516296 642.580383,661.971680 
M702.712158,322.878540 
	C686.549805,319.773438 670.624756,320.858276 654.804749,325.640900 
	C698.673767,322.970886 736.614380,337.024445 769.521240,365.866394 
	C752.736694,343.324097 730.630127,329.345276 702.712158,322.878540 
z"/>
<path fill="#000000" opacity="1.000000" stroke="none" 
	d="
M273.088959,705.941528 
	C262.410461,696.957886 252.351547,687.849548 243.960007,676.656799 
	C249.561981,678.353577 255.155319,680.079407 260.767426,681.742065 
	C284.632172,688.811951 309.055664,691.869141 333.787567,689.441772 
	C364.166351,686.460205 390.142700,673.351929 412.173645,652.294678 
	C437.482361,628.104614 457.960876,599.943726 478.400421,571.759155 
	C483.620697,564.560791 488.436249,557.068970 493.497406,549.624146 
	C494.542633,550.732117 494.227600,551.556763 493.964111,552.326843 
	C485.292938,577.673096 480.228333,604.036377 472.151825,629.553589 
	C464.946289,652.318970 457.012360,674.752625 442.598694,694.177734 
	C427.451385,714.591492 408.584320,730.254456 384.023224,738.068909 
	C365.247711,744.042664 346.570068,741.836548 328.045776,736.443787 
	C307.532684,730.472046 289.759857,719.564453 273.088959,705.941528 
z"/>
<path fill="#000000" opacity="1.000000" stroke="none" 
	d="
M692.739990,781.984375 
	C694.219666,771.402832 695.133667,761.227051 695.482422,750.745239 
	C696.920166,753.608459 698.330261,756.485962 699.801514,759.331848 
	C702.681824,764.903320 706.569092,769.580444 711.922607,772.971863 
	C721.463135,779.015686 733.256287,773.347107 734.717896,762.101074 
	C736.489319,748.470520 731.001953,737.460449 722.579956,727.428467 
	C721.385498,726.005676 719.442871,725.007080 719.373352,721.152100 
	C737.682373,738.527100 757.091309,752.631226 775.778381,766.953979 
	C775.806763,768.805603 774.969910,769.408875 774.109985,769.908020 
	C758.685852,778.860107 743.092163,787.404785 725.305115,790.883728 
	C716.076904,792.688660 706.792603,792.662292 697.480042,792.006897 
	C693.376648,791.718079 690.761536,790.237183 692.552246,785.409302 
	C692.882690,784.518616 692.676880,783.429016 692.739990,781.984375 
z"/>
<path fill="#000000" opacity="1.000000" stroke="none" 
	d="
M314.029297,346.016815 
	C308.624115,336.648712 303.648407,327.236267 302.389893,316.075562 
	C300.856720,302.479065 305.075073,291.185913 313.993774,281.319885 
	C323.448273,270.861115 335.166626,263.662231 348.051880,258.263184 
	C356.309174,254.803284 364.645630,251.532318 373.561096,248.530167 
	C364.034149,265.893524 357.040070,284.235748 350.653229,302.872162 
	C350.091675,296.599243 353.193726,290.887482 352.657654,284.418427 
	C346.490509,283.897797 341.238220,286.339600 336.217285,289.109894 
	C319.534058,298.314850 310.096191,311.845764 311.301605,331.626770 
	C311.521423,335.234131 312.789398,338.391846 314.277771,341.572174 
	C314.886780,342.873474 316.804260,344.256134 314.280090,345.901733 
	C313.973328,345.975983 314.010254,346.003693 314.029297,346.016815 
z"/>
</svg>